<mxfile host="app.diagrams.net" agent="Mozilla/5.0 (Windows NT 10.0; Win64; x64) AppleWebKit/537.36 (KHTML, like Gecko) Chrome/130.0.0.0 Safari/537.36 Edg/130.0.0.0" version="24.8.0">
  <diagram name="Page-1" id="6X42bve5GiybFHy3l7x4">
    <mxGraphModel grid="1" page="1" gridSize="10" guides="1" tooltips="1" connect="1" arrows="1" fold="1" pageScale="1" pageWidth="850" pageHeight="1100" math="0" shadow="0">
      <root>
        <mxCell id="0" />
        <mxCell id="1" parent="0" />
        <mxCell id="QqbyKbLBOWTNEqaVplNh-11" value="" style="edgeStyle=orthogonalEdgeStyle;rounded=0;orthogonalLoop=1;jettySize=auto;html=1;exitX=0.5;exitY=1;exitDx=0;exitDy=0;dashed=1;endArrow=none;endFill=0;" edge="1" parent="1" source="QqbyKbLBOWTNEqaVplNh-10">
          <mxGeometry relative="1" as="geometry">
            <mxPoint x="880" y="1050" as="targetPoint" />
            <mxPoint x="880" y="70" as="sourcePoint" />
          </mxGeometry>
        </mxCell>
        <mxCell id="QqbyKbLBOWTNEqaVplNh-7" value="" style="edgeStyle=orthogonalEdgeStyle;rounded=0;orthogonalLoop=1;jettySize=auto;html=1;exitX=0.5;exitY=1;exitDx=0;exitDy=0;dashed=1;endArrow=none;endFill=0;" edge="1" parent="1" source="QqbyKbLBOWTNEqaVplNh-6">
          <mxGeometry relative="1" as="geometry">
            <mxPoint x="741" y="1060" as="targetPoint" />
            <mxPoint x="740" y="70" as="sourcePoint" />
            <Array as="points">
              <mxPoint x="740" y="335" />
              <mxPoint x="741" y="750" />
            </Array>
          </mxGeometry>
        </mxCell>
        <mxCell id="QqbyKbLBOWTNEqaVplNh-34" value="" style="rounded=1;whiteSpace=wrap;html=1;" vertex="1" parent="1">
          <mxGeometry x="730" y="585" width="20" height="455" as="geometry" />
        </mxCell>
        <mxCell id="opBWTPDSIFJczFdYwesO-1" value="Actor" style="shape=umlActor;verticalLabelPosition=top;verticalAlign=bottom;html=1;outlineConnect=0;labelPosition=center;align=center;" vertex="1" parent="1">
          <mxGeometry x="40" y="20" width="30" height="60" as="geometry" />
        </mxCell>
        <mxCell id="PvygQ9SDJMERfX3BFy33-9" style="edgeStyle=orthogonalEdgeStyle;rounded=0;orthogonalLoop=1;jettySize=auto;html=1;exitX=0.5;exitY=1;exitDx=0;exitDy=0;dashed=1;endArrow=none;endFill=0;" edge="1" parent="1" source="PvygQ9SDJMERfX3BFy33-10">
          <mxGeometry relative="1" as="geometry">
            <mxPoint x="200" y="600" as="targetPoint" />
          </mxGeometry>
        </mxCell>
        <mxCell id="PvygQ9SDJMERfX3BFy33-2" value="App" style="rounded=1;whiteSpace=wrap;html=1;" vertex="1" parent="1">
          <mxGeometry x="160" y="40" width="80" height="30" as="geometry" />
        </mxCell>
        <mxCell id="PvygQ9SDJMERfX3BFy33-7" value="" style="endArrow=none;dashed=1;html=1;rounded=0;" edge="1" parent="1" target="opBWTPDSIFJczFdYwesO-1">
          <mxGeometry width="50" height="50" relative="1" as="geometry">
            <mxPoint x="56" y="1060" as="sourcePoint" />
            <mxPoint x="54.00068965517246" y="150" as="targetPoint" />
          </mxGeometry>
        </mxCell>
        <mxCell id="PvygQ9SDJMERfX3BFy33-11" value="" style="edgeStyle=orthogonalEdgeStyle;rounded=0;orthogonalLoop=1;jettySize=auto;html=1;exitX=0.5;exitY=1;exitDx=0;exitDy=0;dashed=1;endArrow=none;endFill=0;" edge="1" parent="1" source="PvygQ9SDJMERfX3BFy33-2" target="PvygQ9SDJMERfX3BFy33-10">
          <mxGeometry relative="1" as="geometry">
            <mxPoint x="200" y="411.3333740234375" as="targetPoint" />
            <mxPoint x="200" y="70" as="sourcePoint" />
          </mxGeometry>
        </mxCell>
        <mxCell id="PvygQ9SDJMERfX3BFy33-10" value="" style="rounded=1;whiteSpace=wrap;html=1;" vertex="1" parent="1">
          <mxGeometry x="190" y="100" width="20" height="950" as="geometry" />
        </mxCell>
        <mxCell id="PvygQ9SDJMERfX3BFy33-13" value="" style="endArrow=classic;html=1;rounded=0;entryX=0;entryY=0;entryDx=0;entryDy=0;" edge="1" parent="1" target="PvygQ9SDJMERfX3BFy33-10">
          <mxGeometry width="50" height="50" relative="1" as="geometry">
            <mxPoint x="55" y="100" as="sourcePoint" />
            <mxPoint x="190" y="100" as="targetPoint" />
          </mxGeometry>
        </mxCell>
        <mxCell id="PvygQ9SDJMERfX3BFy33-14" value="Open app" style="edgeLabel;html=1;align=center;verticalAlign=middle;resizable=0;points=[];" vertex="1" connectable="0" parent="PvygQ9SDJMERfX3BFy33-13">
          <mxGeometry x="-0.045" y="4" relative="1" as="geometry">
            <mxPoint as="offset" />
          </mxGeometry>
        </mxCell>
        <mxCell id="PvygQ9SDJMERfX3BFy33-19" value="" style="endArrow=classic;html=1;rounded=0;entryX=0;entryY=0;entryDx=0;entryDy=0;" edge="1" parent="1" target="PvygQ9SDJMERfX3BFy33-18">
          <mxGeometry width="50" height="50" relative="1" as="geometry">
            <mxPoint x="212" y="130" as="sourcePoint" />
            <mxPoint x="350" y="240" as="targetPoint" />
          </mxGeometry>
        </mxCell>
        <mxCell id="PvygQ9SDJMERfX3BFy33-21" value="Renders" style="edgeLabel;html=1;align=center;verticalAlign=middle;resizable=0;points=[];" vertex="1" connectable="0" parent="PvygQ9SDJMERfX3BFy33-19">
          <mxGeometry x="0.0056" relative="1" as="geometry">
            <mxPoint as="offset" />
          </mxGeometry>
        </mxCell>
        <mxCell id="PvygQ9SDJMERfX3BFy33-24" value="" style="endArrow=classic;dashed=1;html=1;rounded=0;endFill=1;" edge="1" parent="1">
          <mxGeometry width="50" height="50" relative="1" as="geometry">
            <mxPoint x="339" y="180" as="sourcePoint" />
            <mxPoint x="210" y="180" as="targetPoint" />
          </mxGeometry>
        </mxCell>
        <mxCell id="PvygQ9SDJMERfX3BFy33-36" style="edgeStyle=orthogonalEdgeStyle;rounded=0;orthogonalLoop=1;jettySize=auto;html=1;exitX=0.5;exitY=1;exitDx=0;exitDy=0;dashed=1;endArrow=none;endFill=0;" edge="1" parent="1" source="PvygQ9SDJMERfX3BFy33-39">
          <mxGeometry relative="1" as="geometry">
            <mxPoint x="470" y="600" as="targetPoint" />
          </mxGeometry>
        </mxCell>
        <mxCell id="PvygQ9SDJMERfX3BFy33-37" value="Redux Store" style="rounded=1;whiteSpace=wrap;html=1;" vertex="1" parent="1">
          <mxGeometry x="430" y="40" width="80" height="30" as="geometry" />
        </mxCell>
        <mxCell id="PvygQ9SDJMERfX3BFy33-38" value="" style="edgeStyle=orthogonalEdgeStyle;rounded=0;orthogonalLoop=1;jettySize=auto;html=1;exitX=0.5;exitY=1;exitDx=0;exitDy=0;dashed=1;endArrow=none;endFill=0;" edge="1" parent="1" source="PvygQ9SDJMERfX3BFy33-37" target="PvygQ9SDJMERfX3BFy33-39">
          <mxGeometry relative="1" as="geometry">
            <mxPoint x="470" y="411.3333740234375" as="targetPoint" />
            <mxPoint x="470" y="70" as="sourcePoint" />
          </mxGeometry>
        </mxCell>
        <mxCell id="PvygQ9SDJMERfX3BFy33-39" value="" style="rounded=1;whiteSpace=wrap;html=1;" vertex="1" parent="1">
          <mxGeometry x="460" y="100" width="20" height="930" as="geometry" />
        </mxCell>
        <mxCell id="QqbyKbLBOWTNEqaVplNh-1" style="edgeStyle=orthogonalEdgeStyle;rounded=0;orthogonalLoop=1;jettySize=auto;html=1;exitX=0.5;exitY=1;exitDx=0;exitDy=0;dashed=1;endArrow=none;endFill=0;" edge="1" parent="1" source="QqbyKbLBOWTNEqaVplNh-4">
          <mxGeometry relative="1" as="geometry">
            <mxPoint x="600" y="600" as="targetPoint" />
          </mxGeometry>
        </mxCell>
        <mxCell id="QqbyKbLBOWTNEqaVplNh-2" value="NY Bus API" style="rounded=1;whiteSpace=wrap;html=1;" vertex="1" parent="1">
          <mxGeometry x="560" y="40" width="80" height="30" as="geometry" />
        </mxCell>
        <mxCell id="QqbyKbLBOWTNEqaVplNh-3" value="" style="edgeStyle=orthogonalEdgeStyle;rounded=0;orthogonalLoop=1;jettySize=auto;html=1;exitX=0.5;exitY=1;exitDx=0;exitDy=0;dashed=1;endArrow=none;endFill=0;" edge="1" parent="1" source="QqbyKbLBOWTNEqaVplNh-2" target="QqbyKbLBOWTNEqaVplNh-4">
          <mxGeometry relative="1" as="geometry">
            <mxPoint x="600" y="411.3333740234375" as="targetPoint" />
            <mxPoint x="600" y="70" as="sourcePoint" />
          </mxGeometry>
        </mxCell>
        <mxCell id="QqbyKbLBOWTNEqaVplNh-4" value="" style="rounded=1;whiteSpace=wrap;html=1;" vertex="1" parent="1">
          <mxGeometry x="590" y="100" width="20" height="930" as="geometry" />
        </mxCell>
        <mxCell id="QqbyKbLBOWTNEqaVplNh-6" value="ErrorModal" style="rounded=1;whiteSpace=wrap;html=1;" vertex="1" parent="1">
          <mxGeometry x="700" y="40" width="80" height="30" as="geometry" />
        </mxCell>
        <mxCell id="QqbyKbLBOWTNEqaVplNh-10" value="Controls" style="rounded=1;whiteSpace=wrap;html=1;" vertex="1" parent="1">
          <mxGeometry x="840" y="40" width="80" height="30" as="geometry" />
        </mxCell>
        <mxCell id="QqbyKbLBOWTNEqaVplNh-14" value="MapView" style="rounded=1;whiteSpace=wrap;html=1;" vertex="1" parent="1">
          <mxGeometry x="980" y="40" width="80" height="30" as="geometry" />
        </mxCell>
        <mxCell id="QqbyKbLBOWTNEqaVplNh-15" value="" style="edgeStyle=orthogonalEdgeStyle;rounded=0;orthogonalLoop=1;jettySize=auto;html=1;exitX=0.5;exitY=1;exitDx=0;exitDy=0;dashed=1;endArrow=none;endFill=0;" edge="1" parent="1" source="QqbyKbLBOWTNEqaVplNh-14">
          <mxGeometry relative="1" as="geometry">
            <mxPoint x="1020" y="1050" as="targetPoint" />
            <mxPoint x="1020" y="70" as="sourcePoint" />
          </mxGeometry>
        </mxCell>
        <mxCell id="PvygQ9SDJMERfX3BFy33-27" value="" style="group" vertex="1" connectable="0" parent="1">
          <mxGeometry x="120" y="200" width="530" height="840" as="geometry" />
        </mxCell>
        <mxCell id="PvygQ9SDJMERfX3BFy33-17" value="" style="edgeStyle=orthogonalEdgeStyle;rounded=0;orthogonalLoop=1;jettySize=auto;html=1;exitX=0.5;exitY=1;exitDx=0;exitDy=0;dashed=1;endArrow=none;endFill=0;" edge="1" parent="PvygQ9SDJMERfX3BFy33-27" source="PvygQ9SDJMERfX3BFy33-16">
          <mxGeometry relative="1" as="geometry">
            <mxPoint x="230" y="870" as="targetPoint" />
            <mxPoint x="230" y="-130" as="sourcePoint" />
          </mxGeometry>
        </mxCell>
        <mxCell id="QqbyKbLBOWTNEqaVplNh-22" style="edgeStyle=orthogonalEdgeStyle;rounded=0;orthogonalLoop=1;jettySize=auto;html=1;exitX=0.5;exitY=1;exitDx=0;exitDy=0;dashed=1;endArrow=none;endFill=0;" edge="1" parent="PvygQ9SDJMERfX3BFy33-27">
          <mxGeometry relative="1" as="geometry">
            <mxPoint x="229.5" y="410" as="targetPoint" />
            <mxPoint x="229.5" y="560" as="sourcePoint" />
          </mxGeometry>
        </mxCell>
        <mxCell id="PvygQ9SDJMERfX3BFy33-18" value="" style="rounded=1;whiteSpace=wrap;html=1;" vertex="1" parent="PvygQ9SDJMERfX3BFy33-27">
          <mxGeometry x="220" y="-70" width="20" height="910" as="geometry" />
        </mxCell>
        <mxCell id="PvygQ9SDJMERfX3BFy33-25" value="loop" style="shape=umlFrame;whiteSpace=wrap;html=1;pointerEvents=0;movable=1;resizable=1;rotatable=1;deletable=1;editable=1;locked=0;connectable=1;" vertex="1" parent="PvygQ9SDJMERfX3BFy33-27">
          <mxGeometry width="530" height="180" as="geometry" />
        </mxCell>
        <mxCell id="PvygQ9SDJMERfX3BFy33-26" value="[until ready or&amp;nbsp;&lt;div&gt;error encountered]&lt;/div&gt;" style="text;html=1;align=center;verticalAlign=middle;resizable=1;points=[];autosize=1;strokeColor=none;fillColor=none;movable=1;rotatable=1;deletable=1;editable=1;locked=0;connectable=1;" vertex="1" parent="PvygQ9SDJMERfX3BFy33-27">
          <mxGeometry x="101.05088929219602" y="8.4" width="99.3103448275862" height="35" as="geometry" />
        </mxCell>
        <mxCell id="PvygQ9SDJMERfX3BFy33-16" value="StartUpPage" style="rounded=1;whiteSpace=wrap;html=1;" vertex="1" parent="PvygQ9SDJMERfX3BFy33-27">
          <mxGeometry x="190" y="-160" width="80" height="30" as="geometry" />
        </mxCell>
        <mxCell id="PvygQ9SDJMERfX3BFy33-41" value="" style="group" vertex="1" connectable="0" parent="PvygQ9SDJMERfX3BFy33-27">
          <mxGeometry x="82.1" y="60" width="26.99" height="100" as="geometry" />
        </mxCell>
        <mxCell id="PvygQ9SDJMERfX3BFy33-28" value="" style="rounded=0;whiteSpace=wrap;html=1;" vertex="1" parent="PvygQ9SDJMERfX3BFy33-41">
          <mxGeometry y="28.571428571428573" width="18.94972918350848" height="42.85714285714286" as="geometry" />
        </mxCell>
        <mxCell id="PvygQ9SDJMERfX3BFy33-31" value="" style="curved=1;endArrow=classic;html=1;rounded=0;" edge="1" parent="PvygQ9SDJMERfX3BFy33-41">
          <mxGeometry width="50" height="50" relative="1" as="geometry">
            <mxPoint x="7.898447857720309" as="sourcePoint" />
            <mxPoint x="18.949729183508484" y="35.71428571428572" as="targetPoint" />
            <Array as="points">
              <mxPoint x="26.99" />
            </Array>
          </mxGeometry>
        </mxCell>
        <mxCell id="PvygQ9SDJMERfX3BFy33-35" value="checkReadyState()" style="edgeLabel;html=1;align=left;verticalAlign=middle;resizable=0;points=[];labelPosition=right;verticalLabelPosition=middle;" vertex="1" connectable="0" parent="PvygQ9SDJMERfX3BFy33-31">
          <mxGeometry relative="1" as="geometry">
            <mxPoint as="offset" />
          </mxGeometry>
        </mxCell>
        <mxCell id="PvygQ9SDJMERfX3BFy33-33" value="" style="curved=1;endArrow=classic;html=1;rounded=0;" edge="1" parent="PvygQ9SDJMERfX3BFy33-41">
          <mxGeometry width="50" height="50" relative="1" as="geometry">
            <mxPoint x="20.444324979789815" y="71.42857142857144" as="sourcePoint" />
            <mxPoint x="5.17108326596606" y="100" as="targetPoint" />
            <Array as="points">
              <mxPoint x="26.99" y="100" />
            </Array>
          </mxGeometry>
        </mxCell>
        <mxCell id="QqbyKbLBOWTNEqaVplNh-23" value="[Error&lt;span style=&quot;background-color: initial;&quot;&gt;]&lt;/span&gt;" style="text;html=1;align=center;verticalAlign=middle;resizable=0;points=[];autosize=1;strokeColor=none;fillColor=none;" vertex="1" parent="PvygQ9SDJMERfX3BFy33-27">
          <mxGeometry x="90" y="260" width="60" height="30" as="geometry" />
        </mxCell>
        <mxCell id="QqbyKbLBOWTNEqaVplNh-26" value="" style="endArrow=classic;html=1;rounded=0;exitX=1.067;exitY=0.557;exitDx=0;exitDy=0;exitPerimeter=0;" edge="1" parent="PvygQ9SDJMERfX3BFy33-27">
          <mxGeometry width="50" height="50" relative="1" as="geometry">
            <mxPoint x="90" y="320" as="sourcePoint" />
            <mxPoint x="339" y="320" as="targetPoint" />
            <Array as="points">
              <mxPoint x="179" y="320" />
            </Array>
          </mxGeometry>
        </mxCell>
        <mxCell id="QqbyKbLBOWTNEqaVplNh-27" value="dispatch(updateErrMsg(errMsg))" style="edgeLabel;html=1;align=center;verticalAlign=middle;resizable=0;points=[];" connectable="0" vertex="1" parent="QqbyKbLBOWTNEqaVplNh-26">
          <mxGeometry x="0.0211" relative="1" as="geometry">
            <mxPoint x="-8" y="-12" as="offset" />
          </mxGeometry>
        </mxCell>
        <mxCell id="QqbyKbLBOWTNEqaVplNh-30" value="" style="endArrow=classic;dashed=1;html=1;rounded=0;exitX=0;exitY=0.609;exitDx=0;exitDy=0;exitPerimeter=0;endFill=1;" edge="1" parent="PvygQ9SDJMERfX3BFy33-27">
          <mxGeometry width="50" height="50" relative="1" as="geometry">
            <mxPoint x="340" y="350" as="sourcePoint" />
            <mxPoint x="90" y="350" as="targetPoint" />
          </mxGeometry>
        </mxCell>
        <mxCell id="QqbyKbLBOWTNEqaVplNh-31" value="errMsg" style="edgeLabel;html=1;align=center;verticalAlign=middle;resizable=0;points=[];" connectable="0" vertex="1" parent="QqbyKbLBOWTNEqaVplNh-30">
          <mxGeometry x="0.4187" y="3" relative="1" as="geometry">
            <mxPoint x="17" y="-13" as="offset" />
          </mxGeometry>
        </mxCell>
        <mxCell id="QqbyKbLBOWTNEqaVplNh-40" value="" style="endArrow=classic;html=1;rounded=0;exitX=1;exitY=0.75;exitDx=0;exitDy=0;" edge="1" parent="PvygQ9SDJMERfX3BFy33-27">
          <mxGeometry width="50" height="50" relative="1" as="geometry">
            <mxPoint x="90" y="453" as="sourcePoint" />
            <mxPoint x="610" y="453" as="targetPoint" />
          </mxGeometry>
        </mxCell>
        <mxCell id="QqbyKbLBOWTNEqaVplNh-41" value="open()" style="edgeLabel;html=1;align=center;verticalAlign=bottom;resizable=0;points=[];labelPosition=center;verticalLabelPosition=top;" connectable="0" vertex="1" parent="QqbyKbLBOWTNEqaVplNh-40">
          <mxGeometry x="-0.1641" relative="1" as="geometry">
            <mxPoint x="-7" y="-3" as="offset" />
          </mxGeometry>
        </mxCell>
        <mxCell id="QqbyKbLBOWTNEqaVplNh-49" value="[API Ready]" style="text;html=1;align=center;verticalAlign=middle;resizable=0;points=[];autosize=1;strokeColor=none;fillColor=none;" vertex="1" parent="PvygQ9SDJMERfX3BFy33-27">
          <mxGeometry x="90" y="490" width="90" height="30" as="geometry" />
        </mxCell>
        <mxCell id="QqbyKbLBOWTNEqaVplNh-59" value="" style="endArrow=classic;dashed=1;html=1;rounded=0;endFill=1;" edge="1" parent="PvygQ9SDJMERfX3BFy33-27">
          <mxGeometry width="50" height="50" relative="1" as="geometry">
            <mxPoint x="70" y="750" as="sourcePoint" />
            <mxPoint x="-70" y="750" as="targetPoint" />
          </mxGeometry>
        </mxCell>
        <mxCell id="QqbyKbLBOWTNEqaVplNh-60" value="App rendered to browser" style="edgeLabel;html=1;align=center;verticalAlign=middle;resizable=0;points=[];" connectable="0" vertex="1" parent="QqbyKbLBOWTNEqaVplNh-59">
          <mxGeometry x="0.4187" y="3" relative="1" as="geometry">
            <mxPoint x="30" y="-13" as="offset" />
          </mxGeometry>
        </mxCell>
        <mxCell id="QqbyKbLBOWTNEqaVplNh-21" value="alt" style="shape=umlFrame;whiteSpace=wrap;html=1;pointerEvents=0;" vertex="1" parent="1">
          <mxGeometry x="120" y="460" width="970" height="450" as="geometry" />
        </mxCell>
        <mxCell id="QqbyKbLBOWTNEqaVplNh-24" value="" style="endArrow=classic;html=1;rounded=0;exitX=1.067;exitY=0.557;exitDx=0;exitDy=0;exitPerimeter=0;" edge="1" parent="1">
          <mxGeometry width="50" height="50" relative="1" as="geometry">
            <mxPoint x="211.34000000000003" y="410.04999999999995" as="sourcePoint" />
            <mxPoint x="460" y="410" as="targetPoint" />
            <Array as="points">
              <mxPoint x="300" y="410" />
            </Array>
          </mxGeometry>
        </mxCell>
        <mxCell id="QqbyKbLBOWTNEqaVplNh-25" value="dispatch(updateIsStartingUp(false))" style="edgeLabel;html=1;align=center;verticalAlign=middle;resizable=0;points=[];" connectable="0" vertex="1" parent="QqbyKbLBOWTNEqaVplNh-24">
          <mxGeometry x="0.0211" relative="1" as="geometry">
            <mxPoint x="-8" y="-12" as="offset" />
          </mxGeometry>
        </mxCell>
        <mxCell id="QqbyKbLBOWTNEqaVplNh-17" value="" style="endArrow=classic;html=1;rounded=0;exitX=1;exitY=0.25;exitDx=0;exitDy=0;" edge="1" parent="1" source="PvygQ9SDJMERfX3BFy33-28">
          <mxGeometry width="50" height="50" relative="1" as="geometry">
            <mxPoint x="230" y="294" as="sourcePoint" />
            <mxPoint x="587" y="300" as="targetPoint" />
          </mxGeometry>
        </mxCell>
        <mxCell id="QqbyKbLBOWTNEqaVplNh-18" value="Request to /ready&amp;nbsp;&lt;div&gt;endpoint&lt;/div&gt;" style="edgeLabel;html=1;align=center;verticalAlign=middle;resizable=0;points=[];" connectable="0" vertex="1" parent="QqbyKbLBOWTNEqaVplNh-17">
          <mxGeometry x="0.1038" y="1" relative="1" as="geometry">
            <mxPoint x="-15" y="-14" as="offset" />
          </mxGeometry>
        </mxCell>
        <mxCell id="QqbyKbLBOWTNEqaVplNh-19" value="" style="endArrow=classicThin;dashed=1;html=1;rounded=0;entryX=1;entryY=0.75;entryDx=0;entryDy=0;endFill=1;" edge="1" parent="1" target="PvygQ9SDJMERfX3BFy33-28">
          <mxGeometry width="50" height="50" relative="1" as="geometry">
            <mxPoint x="590" y="321" as="sourcePoint" />
            <mxPoint x="370" y="310" as="targetPoint" />
          </mxGeometry>
        </mxCell>
        <mxCell id="QqbyKbLBOWTNEqaVplNh-20" value="&quot;Ready&quot; or &quot;Wait&quot;" style="edgeLabel;html=1;align=center;verticalAlign=top;resizable=0;points=[];labelPosition=center;verticalLabelPosition=bottom;" connectable="0" vertex="1" parent="QqbyKbLBOWTNEqaVplNh-19">
          <mxGeometry x="-0.0278" y="2" relative="1" as="geometry">
            <mxPoint as="offset" />
          </mxGeometry>
        </mxCell>
        <mxCell id="QqbyKbLBOWTNEqaVplNh-28" value="" style="endArrow=classic;dashed=1;html=1;rounded=0;exitX=0;exitY=0.609;exitDx=0;exitDy=0;exitPerimeter=0;endFill=1;" edge="1" parent="1">
          <mxGeometry width="50" height="50" relative="1" as="geometry">
            <mxPoint x="460" y="437.76" as="sourcePoint" />
            <mxPoint x="210" y="438" as="targetPoint" />
          </mxGeometry>
        </mxCell>
        <mxCell id="QqbyKbLBOWTNEqaVplNh-29" value="isStartingUp" style="edgeLabel;html=1;align=center;verticalAlign=middle;resizable=0;points=[];" connectable="0" vertex="1" parent="QqbyKbLBOWTNEqaVplNh-28">
          <mxGeometry x="0.4187" y="3" relative="1" as="geometry">
            <mxPoint x="17" y="-13" as="offset" />
          </mxGeometry>
        </mxCell>
        <mxCell id="QqbyKbLBOWTNEqaVplNh-35" value="" style="endArrow=classic;html=1;rounded=0;entryX=0;entryY=0;entryDx=0;entryDy=0;exitX=1;exitY=0.516;exitDx=0;exitDy=0;exitPerimeter=0;" edge="1" parent="1" source="PvygQ9SDJMERfX3BFy33-10" target="QqbyKbLBOWTNEqaVplNh-34">
          <mxGeometry width="50" height="50" relative="1" as="geometry">
            <mxPoint x="245.71" y="630" as="sourcePoint" />
            <mxPoint x="295.71000000000004" y="580" as="targetPoint" />
          </mxGeometry>
        </mxCell>
        <mxCell id="QqbyKbLBOWTNEqaVplNh-36" value="Renders" style="edgeLabel;html=1;align=center;verticalAlign=bottom;resizable=0;points=[];labelPosition=center;verticalLabelPosition=top;" connectable="0" vertex="1" parent="QqbyKbLBOWTNEqaVplNh-35">
          <mxGeometry x="-0.1641" relative="1" as="geometry">
            <mxPoint as="offset" />
          </mxGeometry>
        </mxCell>
        <mxCell id="QqbyKbLBOWTNEqaVplNh-37" value="" style="endArrow=classic;dashed=1;html=1;rounded=0;exitX=-0.152;exitY=0.079;exitDx=0;exitDy=0;exitPerimeter=0;endFill=1;" edge="1" parent="1" source="QqbyKbLBOWTNEqaVplNh-34">
          <mxGeometry width="50" height="50" relative="1" as="geometry">
            <mxPoint x="460" y="620" as="sourcePoint" />
            <mxPoint x="210" y="620" as="targetPoint" />
          </mxGeometry>
        </mxCell>
        <mxCell id="QqbyKbLBOWTNEqaVplNh-48" value="" style="endArrow=none;dashed=1;html=1;rounded=0;entryX=1;entryY=0.499;entryDx=0;entryDy=0;entryPerimeter=0;exitX=0;exitY=0.512;exitDx=0;exitDy=0;exitPerimeter=0;" edge="1" parent="1" source="QqbyKbLBOWTNEqaVplNh-21" target="QqbyKbLBOWTNEqaVplNh-21">
          <mxGeometry width="50" height="50" relative="1" as="geometry">
            <mxPoint x="120" y="710" as="sourcePoint" />
            <mxPoint x="170" y="660" as="targetPoint" />
          </mxGeometry>
        </mxCell>
        <mxCell id="QqbyKbLBOWTNEqaVplNh-50" value="" style="rounded=1;whiteSpace=wrap;html=1;" vertex="1" parent="1">
          <mxGeometry x="870" y="750" width="20" height="280" as="geometry" />
        </mxCell>
        <mxCell id="QqbyKbLBOWTNEqaVplNh-51" value="" style="rounded=1;whiteSpace=wrap;html=1;" vertex="1" parent="1">
          <mxGeometry x="1010" y="840" width="20" height="180" as="geometry" />
        </mxCell>
        <mxCell id="QqbyKbLBOWTNEqaVplNh-52" value="" style="endArrow=classic;html=1;rounded=0;entryX=0;entryY=0.021;entryDx=0;entryDy=0;entryPerimeter=0;" edge="1" parent="1" target="QqbyKbLBOWTNEqaVplNh-50">
          <mxGeometry width="50" height="50" relative="1" as="geometry">
            <mxPoint x="210" y="760" as="sourcePoint" />
            <mxPoint x="540" y="760" as="targetPoint" />
          </mxGeometry>
        </mxCell>
        <mxCell id="QqbyKbLBOWTNEqaVplNh-53" value="Renders" style="edgeLabel;html=1;align=center;verticalAlign=middle;resizable=0;points=[];" connectable="0" vertex="1" parent="QqbyKbLBOWTNEqaVplNh-52">
          <mxGeometry x="-0.0944" y="-2" relative="1" as="geometry">
            <mxPoint x="21" y="-10" as="offset" />
          </mxGeometry>
        </mxCell>
        <mxCell id="QqbyKbLBOWTNEqaVplNh-54" value="" style="endArrow=classic;html=1;rounded=0;entryX=0;entryY=0.391;entryDx=0;entryDy=0;entryPerimeter=0;" edge="1" parent="1">
          <mxGeometry width="50" height="50" relative="1" as="geometry">
            <mxPoint x="210" y="844.07" as="sourcePoint" />
            <mxPoint x="1010" y="840.0000000000001" as="targetPoint" />
          </mxGeometry>
        </mxCell>
        <mxCell id="QqbyKbLBOWTNEqaVplNh-55" value="Renders" style="edgeLabel;html=1;align=center;verticalAlign=middle;resizable=0;points=[];" connectable="0" vertex="1" parent="QqbyKbLBOWTNEqaVplNh-54">
          <mxGeometry x="-0.0944" y="-2" relative="1" as="geometry">
            <mxPoint x="-42" y="-14" as="offset" />
          </mxGeometry>
        </mxCell>
        <mxCell id="QqbyKbLBOWTNEqaVplNh-56" value="" style="endArrow=classic;dashed=1;html=1;rounded=0;exitX=-0.067;exitY=0.138;exitDx=0;exitDy=0;exitPerimeter=0;endFill=1;" edge="1" parent="1" source="QqbyKbLBOWTNEqaVplNh-50">
          <mxGeometry width="50" height="50" relative="1" as="geometry">
            <mxPoint x="460" y="790.24" as="sourcePoint" />
            <mxPoint x="210" y="790.24" as="targetPoint" />
          </mxGeometry>
        </mxCell>
        <mxCell id="QqbyKbLBOWTNEqaVplNh-58" value="" style="endArrow=classic;dashed=1;html=1;rounded=0;exitX=-0.067;exitY=0.196;exitDx=0;exitDy=0;exitPerimeter=0;endFill=1;" edge="1" parent="1" source="QqbyKbLBOWTNEqaVplNh-51">
          <mxGeometry width="50" height="50" relative="1" as="geometry">
            <mxPoint x="869" y="880" as="sourcePoint" />
            <mxPoint x="210" y="881.24" as="targetPoint" />
          </mxGeometry>
        </mxCell>
      </root>
    </mxGraphModel>
  </diagram>
</mxfile>
